<svg width="25" height="24" viewBox="0 0 25 24" fill="none" xmlns="http://www.w3.org/2000/svg">

<path d="M15.3372 6.44452C16.1504 6.62962 16.9444 6.90022 17.7073 7.25261C19.3083 9.78968 20.1128 12.6212 19.8758 15.8686C18.9419 16.5594 17.9233 17.1112 16.849 17.5096C16.8039 17.4362 16.7597 17.3623 16.7164 17.2878C16.939 17.176 17.1571 17.0547 17.3702 16.9241L17.3702 16.9241L17.3769 16.92C17.4908 16.8485 17.5824 16.7511 17.6465 16.6393C17.7105 16.5278 17.7461 16.4038 17.7522 16.2782C17.7584 16.1527 17.7352 16.0264 17.6832 15.9098C17.6311 15.7931 17.5507 15.6878 17.4459 15.6055L17.4442 15.6042C17.3705 15.5466 17.2963 15.4854 17.2249 15.4236L17.2224 15.4214C17.1062 15.3218 16.9613 15.2556 16.8035 15.2355C16.648 15.2157 16.4915 15.2424 16.3531 15.31C13.9739 16.4633 11.3794 16.4647 8.96508 15.3078L8.96509 15.3078L8.96017 15.3055C8.82067 15.2399 8.66402 15.2155 8.50907 15.2375C8.35427 15.2594 8.2125 15.3257 8.09868 15.4242L8.09844 15.4244C8.02889 15.4846 7.95426 15.5457 7.8777 15.6059L7.87769 15.6059L7.87372 15.6091C7.76962 15.6921 7.69006 15.7979 7.63883 15.9149C7.58766 16.0317 7.56535 16.1582 7.57242 16.2836C7.5795 16.4091 7.61592 16.5329 7.68073 16.6441C7.74563 16.7554 7.83797 16.8522 7.95251 16.9229L7.95249 16.9229L7.95752 16.926C8.17116 17.0555 8.38954 17.1763 8.61213 17.288C8.56874 17.3628 8.52434 17.4369 8.47895 17.5103C7.40606 17.1111 6.38875 16.5593 5.45562 15.8693C5.25626 13.0404 5.79698 10.1891 7.6228 7.25216C8.38678 6.89902 9.18209 6.62816 9.99656 6.44333C10.0483 6.55569 10.0976 6.66934 10.1444 6.78419L10.369 7.33563L10.957 7.24191C12.0911 7.06114 13.2446 7.06114 14.3788 7.24191L14.9676 7.33577L15.1918 6.7832C15.238 6.66922 15.2865 6.5563 15.3372 6.44452ZM15.5666 5.97508C15.5664 5.97546 15.5662 5.97584 15.566 5.97623C15.5661 5.97597 15.5662 5.97571 15.5664 5.97546L15.5666 5.97508Z" stroke="currentColor" stroke-width="1.5"/>
<path d="M9.46667 12.4C9.46667 13.0614 10.0087 13.6 10.6666 13.6C11.3349 13.6 11.8665 13.0614 11.8665 12.3999C11.877 11.7432 11.3402 11.2 10.6666 11.2C9.99823 11.2 9.46667 11.7386 9.46667 12.4Z" fill="currentColor"/>
<path d="M13.4667 12.4C13.4667 13.0614 14.0087 13.6 14.6666 13.6C15.3402 13.6 15.8665 13.0614 15.8665 12.3999C15.877 11.7432 15.3402 11.2 14.6666 11.2C13.9982 11.2 13.4667 11.7386 13.4667 12.4Z" fill="currentColor"/>

</svg>
