<svg width="24" height="24" viewBox="0 0 24 24" fill="none" xmlns="http://www.w3.org/2000/svg">

<path d="M14.8523 19.9613C14.6749 19.9613 14.5047 19.8883 14.3793 19.7584C14.2539 19.6285 14.1834 19.4524 14.1834 19.2687V16.5884C14.2085 16.3478 14.182 16.1045 14.1057 15.8758C14.0293 15.6471 13.9051 15.4387 13.7419 15.2655C13.6594 15.1745 13.6022 15.0621 13.5763 14.9402C13.5503 14.8183 13.5567 14.6914 13.5948 14.5729C13.6376 14.4518 13.7123 14.3455 13.8104 14.2659C13.9085 14.1864 14.0261 14.1368 14.15 14.1228C16.0763 13.8942 17.8622 13.2362 17.8622 9.96722C17.8607 9.17897 17.5689 8.42101 17.0462 7.8479C16.9637 7.7569 16.9064 7.6445 16.8805 7.52259C16.8546 7.40067 16.861 7.27377 16.8991 7.15531C17.1099 6.60132 17.1427 5.99174 16.9927 5.41691C16.3581 5.60526 15.7603 5.90768 15.2269 6.31035C15.1475 6.36633 15.0575 6.40396 14.9628 6.42069C14.8682 6.43742 14.7712 6.43286 14.6784 6.40732C13.2596 6.00549 11.7627 6.00549 10.344 6.40732C10.2512 6.43286 10.1542 6.43742 10.0596 6.42069C9.96493 6.40396 9.87487 6.36633 9.79553 6.31035C9.26523 5.90221 8.66652 5.59929 8.02968 5.41691C7.89695 5.96564 7.92963 6.54328 8.12332 7.0722C8.16135 7.19066 8.16775 7.31756 8.14185 7.43948C8.11594 7.56139 8.0587 7.67379 7.97617 7.76479C7.70836 8.05507 7.49844 8.39716 7.35841 8.77151C7.21839 9.14585 7.15101 9.54511 7.16013 9.94644C7.16013 13.1878 8.94605 13.8665 10.8791 14.102C11.0025 14.1178 11.1193 14.169 11.2161 14.2498C11.313 14.3305 11.3863 14.4376 11.4276 14.5591C11.4656 14.6775 11.472 14.8044 11.4461 14.9264C11.4202 15.0483 11.363 15.1607 11.2804 15.2517C11.1207 15.4201 10.9984 15.6227 10.9221 15.8452C10.8459 16.0677 10.8175 16.3048 10.839 16.5399V19.2687C10.839 19.4524 10.7685 19.6285 10.6431 19.7584C10.5176 19.8883 10.3475 19.9613 10.1701 19.9613C9.9927 19.9613 9.82257 19.8883 9.69713 19.7584C9.57169 19.6285 9.50122 19.4524 9.50122 19.2687V18.0567C8.84008 18.1942 8.15411 18.1185 7.53577 17.8399C6.91744 17.5613 6.39647 17.093 6.0431 16.4983C5.78224 16.152 5.55482 15.8612 5.3274 15.8057C5.23956 15.7839 5.15673 15.7444 5.08365 15.6894C5.01056 15.6344 4.94865 15.5651 4.90144 15.4854C4.80611 15.3243 4.77647 15.1306 4.81905 14.9469C4.84013 14.856 4.8783 14.7702 4.93139 14.6945C4.98448 14.6189 5.05145 14.5548 5.12847 14.5059C5.28401 14.4072 5.47106 14.3765 5.64846 14.4206C6.24955 14.6383 6.7598 15.0639 7.09324 15.6257C7.64842 16.3598 8.10326 16.9554 9.50122 16.6576V16.5884C9.47497 16.1511 9.54353 15.7133 9.70188 15.3071C7.81564 14.8638 5.82237 13.6656 5.82237 9.95337C5.81674 8.94808 6.14234 7.97086 6.74543 7.18301C6.51229 6.27899 6.58063 5.31994 6.9394 4.46114C6.97384 4.36017 7.03042 4.26885 7.1047 4.19434C7.17898 4.11983 7.26893 4.06417 7.36749 4.03174C7.60828 3.98326 8.51796 3.84474 10.2905 5.00136C11.7513 4.64815 13.2711 4.64815 14.7319 5.00136C16.5044 3.84474 17.4141 3.98326 17.6549 4.03174C17.75 4.06058 17.8378 4.11096 17.9118 4.17923C17.9859 4.24751 18.0443 4.33197 18.083 4.42651C18.4417 5.28531 18.5101 6.24436 18.277 7.14839C18.8786 7.93703 19.204 8.91372 19.2 9.91874C19.2 13.8526 16.8924 14.94 15.3272 15.2932C15.4913 15.722 15.5577 16.1841 15.5212 16.6438V19.2687C15.5212 19.4524 15.4507 19.6285 15.3252 19.7584C15.1998 19.8883 15.0297 19.9613 14.8523 19.9613Z" fill="currentColor"/>

</svg>
