<svg xmlns="http://www.w3.org/2000/svg" xmlns:xlink="http://www.w3.org/1999/xlink" version="1.1" id="图层_1" x="0px" y="0px" viewBox="0 0 444.1 85" style="enable-background:new 0 0 444.1 85;" xml:space="preserve">
<style type="text/css">
	.st0{fill:#EB6161;}
</style>
<g>
	<g>
		<path class="st0" d="M130.3,19.3V61h16.6v11.8h-30.5V19.4L130.3,19.3L130.3,19.3z"/>
		<path class="st0" d="M168,19.3v53.4h-13.9V19.3L168,19.3L168,19.3z"/>
		<path class="st0" d="M179.2,72.7V19.3h13.9l25.6,32.6V19.3h13.8v53.4h-13.8l-25.6-32.6v32.6H179.2z"/>
		<path class="st0" d="M257.6,41.4l16.9-22h17.1l-21.2,25.3l23.2,28.1h-18l-18.1-23.2v23.2h-13.9V19.4h13.9v22H257.6z"/>
		<path class="st0" d="M313.7,41.4l16.9-22h17.1l-21.2,25.3l23.2,28.1h-18l-18.1-23.2v23.2h-13.9V19.4h13.9v22H313.7z"/>
		<path class="st0" d="M386.2,31.1h-16.5V40h15.6v11.8h-15.6V61h16.5v11.8h-30.4V19.4h30.4V31.1z"/>
		<path class="st0" d="M409.1,47.1l-19.5-27.8h16.6l9.9,14.6l9.8-14.6h16.6L423,47.1v25.6h-13.9V47.1z"/>
	</g>
	<g>
		<path class="st0" d="M97.8,46v-6.6l0,0l0,0H82.9v-4c4.4-1.3,7.6-3.3,9.7-5.9c2.1-2.7,3.2-6.3,3.2-10.9c0-5.1-2-9.2-5.9-12.4    c-4-3.1-9.3-4.7-16.2-4.7c-6.8,0-12.2,1.6-16.1,4.7c-3.9,3.1-5.9,7.3-5.9,12.4c0,8.8,4.2,14.4,12.7,16.9v3.9H50.7h-0.6H35.8v-4    c4.4-1.3,7.6-3.3,9.7-5.9c2.1-2.7,3.2-6.3,3.2-10.9c0-5.1-2-9.2-5.9-12.4c-4-3.1-9.3-4.7-16.2-4.7c-6.8,0-12.2,1.6-16.1,4.7    c-3.9,3.1-5.9,7.3-5.9,12.4c0,8.8,4.2,14.4,12.7,16.9v3.9H3V46l0,0l0,0h14.9v4c-4.4,1.3-7.6,3.3-9.7,5.9C6.1,58.6,5,62.2,5,66.8    c0,5.1,2,9.2,5.9,12.4c4,3.1,9.3,4.7,16.2,4.7c6.8,0,12.2-1.6,16.1-4.7s5.9-7.3,5.9-12.4c0-8.8-4.2-14.4-12.7-16.9V46h13.7h0.6    h14.4v4c-4.4,1.3-7.6,3.3-9.7,5.9c-2.1,2.7-3.2,6.3-3.2,10.9c0,5.1,2,9.2,5.9,12.4c4,3.1,9.3,4.7,16.2,4.7    c6.8,0,12.2-1.6,16.1-4.7s5.9-7.3,5.9-12.4c0-8.8-4.2-14.4-12.7-16.9V46H97.8z M35.8,45.5v0.6V50v0.4l0.4,0.1    c8.3,2.4,12.3,7.8,12.3,16.3c0,4.9-1.9,8.9-5.7,11.9c-3.8,3-9.1,4.6-15.8,4.6s-12-1.5-15.8-4.6c-3.8-3-5.7-7-5.7-11.9    c0-4.4,1-8,3-10.5c2-2.6,5.2-4.5,9.5-5.7l0.4-0.1V50v-4v-0.6h-0.6H3.6l0,0V40h13.7h0.6v-0.6v-3.9v-0.4L17.5,35    C9.2,32.6,5.2,27.2,5.2,18.7c0-4.9,1.9-8.9,5.7-11.9S20,2.2,26.7,2.2s12,1.5,15.8,4.6c3.8,3,5.7,7,5.7,11.9c0,4.4-1,8-3,10.5    c-2,2.6-5.2,4.5-9.5,5.7L35.3,35v0.4v4V40h0.6h14.2v5.5H36.4H35.8z M85.6,58.9c2.1,1.9,3.1,4.5,3.1,7.7c0,3.3-1.3,5.8-4,7.7    c-2.7,1.9-6.1,2.8-10.4,2.8s-7.8-1-10.5-3s-4-4.4-4-7.4c0-3.7,1-6.3,3.1-8c1.9-1.6,4.9-2.8,8.8-3.7V30.4c-4.2-0.7-7.3-2-9.3-3.9    c-2.1-1.9-3.1-4.5-3.1-7.7c0-3.3,1.3-5.8,4-7.7s6.1-2.8,10.4-2.8s7.8,1,10.5,3s4,4.4,4,7.4c0,3.7-1,6.3-3.1,8    c-1.9,1.6-4.9,2.8-8.9,3.7V55C80.3,55.7,83.5,57,85.6,58.9z"/>
		<path class="st0" d="M29.6,30.9c3.9-0.9,6.8-2.2,8.7-3.8c2.2-1.8,3.3-4.6,3.3-8.5c0-3.1-1.4-5.7-4.2-7.8c-2.8-2-6.4-3.1-10.8-3.1    s-8,1-10.8,2.9c-2.8,2-4.2,4.7-4.2,8.2c0,3.4,1.1,6.1,3.3,8.1c2,1.9,5.1,3.2,9.2,3.9v23.7c-3.8,0.9-6.7,2.2-8.6,3.7    c-2.2,1.8-3.3,4.6-3.3,8.5c0,3.1,1.4,5.7,4.2,7.8c2.8,2,6.4,3.1,10.8,3.1s8-1,10.8-2.9c2.8-2,4.2-4.7,4.2-8.2    c0-3.4-1.1-6.1-3.3-8.1c-2.1-1.9-5.2-3.2-9.3-4C29.6,54.4,29.6,30.9,29.6,30.9z M38.5,58.9c2.1,1.9,3.1,4.5,3.1,7.7    c0,3.3-1.3,5.8-4,7.7c-2.7,1.9-6.1,2.8-10.4,2.8s-7.8-1-10.5-3s-4-4.4-4-7.4c0-3.7,1-6.3,3.1-8c1.9-1.6,4.9-2.8,8.8-3.7V30.4    c-4.2-0.7-7.3-2-9.3-3.9c-2.1-1.9-3.1-4.5-3.1-7.7c0-3.3,1.3-5.8,4-7.7s6.1-2.8,10.4-2.8s7.8,1,10.5,3s4,4.4,4,7.4    c0,3.7-1,6.3-3.1,8c-1.9,1.6-4.9,2.8-8.9,3.7V55C33.2,55.7,36.4,57,38.5,58.9z"/>
	</g>
</g>
</svg>