<svg width="20" height="18" viewBox="0 0 20 18" fill="none" xmlns="http://www.w3.org/2000/svg">
<path fill-rule="evenodd" clip-rule="evenodd" d="M5.64294 0C5.41834 7.30981e-05 5.19776 0.0600461 5.00354 0.173843C4.80931 0.287639 4.64835 0.451216 4.53695 0.648L0.167781 8.36229C0.0578313 8.55651 0 8.77632 0 9C0 9.22368 0.0578313 9.44349 0.167781 9.63771L4.53695 17.352C4.64835 17.5488 4.80931 17.7124 5.00354 17.8262C5.19776 17.94 5.41834 17.9999 5.64294 18H14.3583C14.5829 17.9999 14.8035 17.94 14.9977 17.8262C15.192 17.7124 15.3529 17.5488 15.4643 17.352L19.8322 9.63771C19.9422 9.44349 20 9.22368 20 9C20 8.77632 19.9422 8.55651 19.8322 8.36229L15.4643 0.648C15.3529 0.451216 15.192 0.287639 14.9977 0.173843C14.8035 0.0600461 14.5829 7.30981e-05 14.3583 0H5.64294ZM12.0368 12.4663C12.475 12.2149 12.8596 11.8785 13.1685 11.4764C13.4774 11.0744 13.7044 10.6147 13.8365 10.1238C13.9686 9.6329 14.0031 9.12048 13.9381 8.61604C13.8731 8.11161 13.7099 7.62512 13.4579 7.18459C13.2058 6.74407 12.8699 6.3582 12.4694 6.04921C12.069 5.74022 11.6119 5.51421 11.1245 5.38419C10.6371 5.25417 10.1291 5.22271 9.62963 5.29162C9.13016 5.36053 8.64913 5.52845 8.21424 5.78571C7.34343 6.30084 6.70991 7.1426 6.4519 8.12731C6.19389 9.11203 6.33235 10.1597 6.83707 11.0418C7.34179 11.9239 8.17178 12.5687 9.14592 12.8356C10.1201 13.1025 11.1593 12.9697 12.0368 12.4663Z" fill="currentColor"/>
</svg>
