<svg version="1.1" xmlns="http://www.w3.org/2000/svg" fill-rule="evenodd" clip-rule="evenodd" height="200" width="200" viewBox="0 0 1024 1024"><path d="M443.71 386.687l-0.778 0.015-0.922 1.049 1.7-1.064z m65.433 237.043l-2.34-3.739-5.578 5.699-6.106 0.826 2.695 4.305 11.329-7.091z m-303.214 56.707l11.848-13.566-15.044 2.164c-0.908-0.694-1.814-1.388-2.835-2.01l-4.064 4.594 10.095 8.818z" fill="#D9D9D9"></path><path d="M442.01 387.75l0.922-1.049 0.778-0.014zM195.835 671.618l4.064-4.594c1.021 0.622 1.927 1.316 2.835 2.01l15.044-2.164-11.848 13.566-10.095-8.818z" fill="#D9D9D9"></path><path d="M217.777 666.871L393.424 464.05l101.694 162.466zM506.802 619.991L402.625 453.559l46.222-53.373 266.507 7.583z" fill="#E5E5E5"></path><path d="M449.08 386.953c0.212-0.922 0.127-1.815 0.042-2.707-5.838-42.074 11.152-122.249 16.04-143.915l271.925 19.014-12.419 135.342-275.588-7.734z" fill="#FFFFFF"></path><path d="M68.267 610.654l235.18-285.815c15.53 1.633 68.748 28.715 132.743 67.974 0.326 0.269 0.695 0.353 1.064 0.438L199.899 667.024c-46.127-33.886-107.06-50.62-131.632-56.37z" fill="#FAFAFA"></path><path d="M136.373 506.841L32.906 341.542 247.863 89.673l174.881 279.388c-41.019-24.469-104.643-59.859-123.329-57.466l-2.677 0.256-160.365 194.99zM434.712 362.99L261.249 85.867l259.414 15.65 84.604 135.162-150.53-10.481-1.342 5.412c-0.848 3.686-18.564 78.165-18.683 131.38z" fill="#FFFFFF"></path><path d="M442.01 387.75l0.922-1.049 0.778-0.014z" fill="#D9D9D9"></path><path d="M621.792 237.918L528.363 88.486 245.672 71.644 16.308 340.303 127.38 517.671 43.842 619.253l11.095 2.138c0.935 0.134 86.211 16.708 141.946 59.88l0.937 0.802c-1.336 19.247-4.544 58.945-8.287 70.573l-3.475 10.693 285.366-52.127 3.074-0.535 1.605-2.673c5.613-9.757 33.549-58.276 35.553-73.914l225.62-229.629 14.301-157.453-129.785-9.09zM520.611 101.451l84.607 135.265-150.502-10.56-1.336 5.481c-0.801 3.608-18.579 78.191-18.713 131.388L261.309 85.812l259.302 15.639z m-76.855 285.232l-1.738 1.07 0.937-1.07h0.801zM32.883 341.506L247.809 89.689 422.772 369.04c-41.035-24.46-104.657-59.88-123.369-57.474l-2.674 0.268-160.393 195.01L32.883 341.506z m270.529-16.708c15.505 1.738 68.836 28.737 132.726 68.034 0.4 0.267 0.801 0.401 1.069 0.401L199.959 666.97c-46.248-33.817-107.062-50.524-131.656-56.271l235.109-285.901z m89.954 139.274L495.082 626.47l-277.346 40.366 175.63-202.764z m72.712 234.442l-261.441 47.851c3.475-20.183 6.014-54.801 6.683-65.094l284.832-41.435c-5.481 14.302-19.782 40.767-30.074 58.678z m40.766-78.459L402.589 453.513l46.246-53.331 266.519 7.619-208.51 212.254zM724.71 394.702l-275.607-7.752c0.134-0.936 0.134-1.871 0-2.673-5.882-42.103 11.227-122.3 16.039-143.953l272.001 18.98-12.433 135.398z" fill="#CACACA"></path><path d="M496.152 639.837c-5.481 14.302-19.782 40.766-30.074 58.677l-261.441 47.851c3.475-20.183 6.014-54.801 6.683-65.094l284.832-41.434z" fill="#E5E5E5"></path><path d="M486.064 951.602H181.142c-9.669 0-12.01-13.474-2.908-16.735l111.068-39.797a39.281 39.281 0 0 1 13.248-2.302h313.382c9.669 0 12.01 13.474 2.908 16.735l-103.105 36.944a87.969 87.969 0 0 1-29.671 5.155z" fill="#E0E0E0"></path><path d="M793.381 699.143c-2.866-2.011-9.857-6.425-13.959-6.494l-1.548 0.092-0.809 1.329c-12.734 20.973-29.547 36.249-36.965 42.419-5.662-24.797-28.403-45.863-58.192-53.304-35.128-8.793-70.625 2.484-90.361 28.715-9.787 13.011-16.258 22.856-21.631 31.06-7.245 11.047-11.613 17.726-18.685 23.029-11.44 8.597-16.212 10.249-16.2 10.249l-10.203 2.727 7.338 7.638c36.318 37.982 78.633 58.897 119.157 58.897 11.694 0 23.11-1.78 33.938-5.292 40.293-13.08 61.312-44.603 57.845-86.618 42.835-36.017 50.045-45.955 51.432-51.293l0.508-1.976-1.665-1.178z m-142.822 134.41c-15.241-0.451-31.095-4.241-47.191-11.289-1.675-7.777 5.396-18.407 13.046-26.253 19.031-0.659 38.271-3.813 56.459-9.233-13.185 12.976-24.498 29.476-22.314 46.775z m-72.347-80.425l2.253-3.42c5.107-7.8 11.486-17.506 21.1-30.286 3.559-4.749 7.858-9.001 12.792-12.676 4.195 14.224 19.598 50.461 70.071 65.044-18.361 6.864-38.56 11.116-60.156 12.653a60.507 60.507 0 0 0-2.923 0.254c-1.028 0.092-1.791 0.173-3.374 0.243-23.782-1.837-36.955-26.045-39.763-31.812z m122.127 11.821c-61.682-11.347-74.566-53.142-76.888-63.912 16.397-8.539 35.983-10.561 55.419-5.708 29.385 7.349 47.388 25.468 50.877 51.12-8.886 7.072-18.766 13.289-29.408 18.5z m-106.458 20.268c-15.183-1.017-30.54-3.143-41.113-5.003a123.951 123.951 0 0 0 5.986-4.206c5.258-3.952 9.764-9.337 13.624-14.594 4.136 6.782 12.109 16.547 21.503 23.803z m8.817 10.862c-4.31 5.65-8.874 13.323-9.729 21.238-13.069-6.829-25.733-15.553-37.809-26.022 16.466 2.831 32.4 4.437 47.538 4.784z m58.307 37.3c-4.703-27.94 42.881-58.227 43.39-58.55l2.057-1.283c8.701-4.356 16.94-9.313 24.566-14.756 0.023 34.307-18.095 60.468-49.237 70.579-6.563 2.127-13.542 3.467-20.776 4.01zM879.23 482.501c-0.924 10.353-3.051 22.452-6.309 35.89-3.051 11.081-7.418 25.364-14.398 38.698-1.514 3.963-3.894 7.881-6.194 11.682-1.248 2.057-2.484 4.102-3.605 6.217l-11.625 16.79-12.445 14.721c-2.346 2.877-4.98 5.408-7.522 7.846-1.595 1.514-3.143 3.004-4.553 4.541-3.039 3.305-6.09 6.194-8.921 8.736 3.351-1.583 6.887-3.513 10.446-5.951 1.537-1.028 3.108-1.976 4.715-2.947 3.432-2.068 6.979-4.218 10.03-6.979l4.206-3.594c3.698-3.131 7.534-6.367 11.035-9.984 1.352-1.676 3.051-3.582 4.761-5.523 3.108-3.513 6.321-7.141 8.967-11.047 1.202-2.08 2.681-4.345 4.16-6.633 2.739-4.218 5.339-8.216 7.222-12.56 2.923-6.471 6.205-13.751 8.181-20.961 2.057-5.604 3.027-11.243 3.963-16.686l0.844-4.726c1.768-13.543 1.826-26.612 0.127-37.554a122.079 122.079 0 0 0-2.091-11.96 301.645 301.645 0 0 1-0.994 11.984zM1007.041 258.124s0.802 6.621 0.963 18.279c0.222 5.835-0.051 12.897-0.074 21.038-0.449 8.1-0.474 17.32-1.696 27.256-0.907 9.976-2.132 20.762-3.943 32.111-1.405 11.42-4.015 23.272-6.56 35.568-3 12.177-6.097 24.813-10.044 37.402-4.434 12.432-8.051 25.395-13.573 37.66l-7.881 18.506c-2.694 6.118-6.01 11.925-8.955 17.84-3.038 5.872-5.974 11.741-9.16 17.377l-10.294 16.192c-3.458 5.258-6.523 10.649-10.127 15.515l-11.021 13.929a77859.64 77859.64 0 0 0-10.414 13.149c-3.459 4.16-7.304 7.761-10.716 11.438-6.958 7.244-13.304 13.897-19.277 19.406l-16.343 13.314-14.321 11.353 12.789-13.073 14.772-14.721 17.373-20.671c3.129-3.815 6.669-7.549 9.809-11.838l9.407-13.515 9.917-14.234 9.298-15.545 9.542-16.092 8.577-17.152c2.812-5.804 5.993-11.487 8.558-17.49l7.517-18.148c5.526-11.909 9.178-24.564 13.654-36.68 3.909-12.305 7.574-24.511 10.821-36.396 2.718-12.018 6.157-23.477 8.198-34.619 2.466-11.062 4.32-21.615 5.815-31.404 1.67-9.765 2.635-18.792 3.91-26.769 0.823-8.008 1.797-15.001 2.152-20.781 1.089-11.552 1.327-18.205 1.327-18.205z" fill="#CACACA"></path></svg>
