<svg width="25" height="24" viewBox="0 0 25 24" fill="none" xmlns="http://www.w3.org/2000/svg">

<path d="M18.719 4.09043C18.9192 4.00356 19.1371 3.97866 19.3492 4.01841C19.5612 4.05817 19.7595 4.16108 19.9225 4.31604C20.0855 4.47101 20.2072 4.67217 20.2743 4.89783C20.3415 5.12349 20.3516 5.3651 20.3035 5.59663L19.748 5.45633L20.3035 5.59663L17.5251 18.986C17.4794 19.2065 17.3826 19.41 17.2442 19.5767C17.1058 19.7434 16.9306 19.8676 16.7357 19.937C16.5408 20.0064 16.3329 20.0187 16.1324 19.9727C15.9318 19.9267 15.7456 19.8239 15.5919 19.6745L9.06749 13.3352L5.28431 12.4998C5.03382 12.4447 4.80625 12.3015 4.63566 12.0915C4.46507 11.8816 4.36065 11.6164 4.33802 11.3355C4.3154 11.0545 4.37578 10.7731 4.51015 10.5332C4.64451 10.2934 4.84562 10.108 5.08336 10.005L5.30027 10.6119L5.08395 10.005L18.719 4.09043V4.09043ZM19.1516 5.30557L5.51658 11.2201L9.4552 12.0894C9.55717 12.1118 9.65197 12.1636 9.73003 12.2395L16.3726 18.695L19.1504 5.30623L19.1516 5.30557Z" fill="currentColor"/>
<path d="M19.8746 4.32842C19.9664 4.46871 20.0039 4.6435 19.979 4.81434C19.9541 4.98519 19.8687 5.1381 19.7417 5.23945L9.68589 13.2586C9.62295 13.3088 9.55167 13.3448 9.47612 13.3645C9.40058 13.3843 9.32225 13.3874 9.2456 13.3738C9.16896 13.3601 9.09551 13.3299 9.02943 13.2849C8.96336 13.2399 8.90596 13.181 8.86052 13.1114C8.76874 12.9711 8.73123 12.7962 8.75622 12.6253C8.78121 12.4544 8.86667 12.3014 8.9938 12.2001L19.0496 4.18094C19.1767 4.07969 19.335 4.03835 19.4898 4.06601C19.6445 4.09367 19.7829 4.18806 19.8746 4.32842Z" fill="currentColor"/>
<path d="M9.3392 12.0771C9.49595 12.0771 9.64628 12.1458 9.75712 12.2682C9.86796 12.3906 9.93023 12.5566 9.93023 12.7297V18.0412L10.3481 18.5026L9.93023 18.0412L12.2388 15.4921C12.3503 15.3733 12.4995 15.3075 12.6545 15.309C12.8095 15.3104 12.9577 15.3791 13.0673 15.5001C13.1769 15.6211 13.239 15.7848 13.2404 15.9559C13.2417 16.127 13.1822 16.2918 13.0745 16.4149L10.7659 18.964L10.3729 18.53L10.7659 18.964C10.6006 19.1464 10.39 19.2707 10.1608 19.321C9.9315 19.3714 9.69387 19.3455 9.47791 19.2468C9.26195 19.148 9.07735 18.9808 8.94746 18.7662C8.81757 18.5516 8.74822 18.2993 8.74817 18.0412V12.729C8.74817 12.5559 8.81044 12.3899 8.92128 12.2676C9.03212 12.1452 9.18245 12.0764 9.3392 12.0764V12.0771Z" fill="currentColor"/>

</svg>
