<svg width="20" height="20" viewBox="0 0 20 20" fill="none" xmlns="http://www.w3.org/2000/svg">
<g clip-path="url(#clip0_1813_13976)">
<path fill-rule="evenodd" clip-rule="evenodd" d="M9.99 0C4.47 0 0 4.48 0 10C0 15.52 4.47 20 9.99 20C15.52 20 20 15.52 20 10C20 4.48 15.52 0 9.99 0ZM8.16667 9.16667C8.16667 8.61438 8.61438 8.16667 9.16667 8.16667H10C10.5523 8.16667 11 8.61438 11 9.16667V14.1667C11 14.719 10.5523 15.1667 10 15.1667C9.44771 15.1667 9 14.719 9 14.1667V10.1528C8.52705 10.0735 8.16667 9.66217 8.16667 9.16667ZM10 7.5C10.4602 7.5 10.8333 7.1269 10.8333 6.66667C10.8333 6.20643 10.4602 5.83333 10 5.83333C9.53976 5.83333 9.16667 6.20643 9.16667 6.66667C9.16667 7.1269 9.53976 7.5 10 7.5Z" fill="#F44336"/>
</g>
<defs>
<clipPath id="clip0_1813_13976">
<rect width="20" height="20" fill="white"/>
</clipPath>
</defs>
</svg>
