<svg width="20" height="18" viewBox="0 0 20 18" fill="none" xmlns="http://www.w3.org/2000/svg">
<path fill-rule="evenodd" clip-rule="evenodd" d="M8.15035 1.71152C8.97242 0.31849 11.0276 0.318489 11.8497 1.71152L19.7107 14.1991C20.5327 15.5921 19.5052 17.3334 17.861 17.3334H2.13898C0.494846 17.3334 -0.532739 15.5921 0.289328 14.1991L8.15035 1.71152ZM10 6.33341C10.5523 6.33341 11 6.78113 11 7.33341V10.6667C11 11.219 10.5523 11.6667 10 11.6667C9.44771 11.6667 9 11.219 9 10.6667V7.33341C9 6.78113 9.44771 6.33341 10 6.33341ZM10 14.0001C10.4602 14.0001 10.8333 13.627 10.8333 13.1667C10.8333 12.7065 10.4602 12.3334 10 12.3334C9.53976 12.3334 9.16667 12.7065 9.16667 13.1667C9.16667 13.627 9.53976 14.0001 10 14.0001Z" fill="#FFA726"/>
</svg>
