<svg width="20" height="20" viewBox="0 0 20 20" fill="none" xmlns="http://www.w3.org/2000/svg">
<g clip-path="url(#clip0_1813_12631)">
<path fill-rule="evenodd" clip-rule="evenodd" d="M0 10C0 4.48 4.47 0 9.99 0C15.52 0 20 4.48 20 10C20 15.52 15.52 20 9.99 20C4.47 20 0 15.52 0 10ZM14.8738 8.20711C15.2643 7.81658 15.2643 7.18342 14.8738 6.79289C14.4832 6.40237 13.8501 6.40237 13.4596 6.79289L9.16667 11.0858L7.37377 9.29289C6.98325 8.90237 6.35008 8.90237 5.95956 9.29289C5.56904 9.68342 5.56904 10.3166 5.95956 10.7071L8.45956 13.2071C8.85008 13.5976 9.48325 13.5976 9.87377 13.2071L14.8738 8.20711Z" fill="#66BB6A"/>
</g>
<defs>
<clipPath id="clip0_1813_12631">
<rect width="20" height="20" fill="white"/>
</clipPath>
</defs>
</svg>
