<svg width="24" height="24" viewBox="0 0 24 24" fill="none" xmlns="http://www.w3.org/2000/svg">

<path d="M5.32188 7.32282C6.06319 8.05453 6.91931 8.66699 7.85906 9.13585C9.09815 9.75406 10.4552 10.109 11.8422 10.1779L12.6465 10.2179L12.4547 9.43574C12.3168 8.87328 12.3726 8.28165 12.614 7.75301C12.8555 7.22419 13.2697 6.78691 13.794 6.51167C14.3183 6.23634 14.9219 6.13945 15.5094 6.23714C16.0969 6.33482 16.6331 6.6211 17.0345 7.04889L17.2611 7.29041L17.5862 7.22736C17.667 7.2117 17.7474 7.19469 17.8274 7.17633L18.1775 8.21677C18.1339 8.25054 18.0899 8.28375 18.0453 8.31638L17.8 8.49617V8.80033V9.21701H17.8L17.8 9.22178C17.809 10.3511 17.5889 11.4711 17.1524 12.5165C16.7158 13.5619 16.0714 14.512 15.2562 15.3111C14.4409 16.1102 13.4712 16.7422 12.4035 17.1697C11.3357 17.5972 10.1916 17.8114 9.03812 17.7996L9.03812 17.7996L9.03128 17.7996C8.13994 17.8007 7.25879 17.6667 6.41772 17.4064C7.4304 17.173 8.38635 16.7241 9.21503 16.0833L10.563 15.041L8.85935 15.0088C8.2981 14.9982 7.75522 14.8158 7.30622 14.4886C7.09498 14.3347 6.90957 14.1524 6.75459 13.9485C6.83059 13.9107 6.90147 13.8597 6.96381 13.795C7.10795 13.6455 7.16958 13.4615 7.18059 13.2991C7.20201 12.9832 7.03979 12.6409 6.70451 12.4739C6.3769 12.3107 6.08531 12.0824 5.84939 11.8014C5.65419 11.5689 5.50301 11.3073 5.40004 11.0289C5.6334 11.079 5.87172 11.1076 6.11196 11.114L8.22309 11.1704L6.45699 10.0124C6.09035 9.77205 5.791 9.44702 5.58466 9.0671C5.37836 8.68724 5.27117 8.26384 5.272 7.83448L5.272 7.83292C5.27188 7.66111 5.28871 7.49031 5.32188 7.32282Z" stroke="currentColor" stroke-width="1.2"/>

</svg>
