<svg width="12" height="12" viewBox="0 0 12 12" fill="none" xmlns="http://www.w3.org/2000/svg">
<rect width="12" height="12" rx="6" fill="#ea6060"/>
<path d="M9.75 3.73077C9.48214 3.84615 9.17602 3.92308 8.8699 3.96154C9.17602 3.76923 9.44388 3.46154 9.55867 3.11539C9.25255 3.30769 8.94643 3.42308 8.56378 3.5C8.29592 3.19231 7.875 3 7.45408 3C6.61224 3 5.92347 3.69231 5.92347 4.53846C5.92347 4.65385 5.92347 4.76923 5.96174 4.88461C4.69898 4.80769 3.55102 4.19231 2.78571 3.26923C2.67092 3.5 2.59439 3.76923 2.59439 4.03846C2.59439 4.57692 2.86224 5.03846 3.28316 5.30769C3.01531 5.30769 2.78571 5.23077 2.59439 5.11538C2.59439 5.84615 3.1301 6.5 3.81887 6.61538C3.70408 6.65384 3.55102 6.65384 3.39796 6.65384C3.28316 6.65384 3.20663 6.65384 3.09184 6.61538C3.28316 7.23077 3.85714 7.6923 4.54592 7.6923C4.0102 8.11538 3.35969 8.34615 2.63265 8.34615C2.51786 8.34615 2.40306 8.34615 2.25 8.30769C2.93878 8.73077 3.74235 9 4.62245 9C7.45408 9 8.98469 6.65384 8.98469 4.61538V4.42308C9.29082 4.30769 9.55867 4.03846 9.75 3.73077Z" fill="white"/>
</svg>